FFmpeg version SVN-r25716, Copyright (c) 2000-2010 the FFmpeg developers  built on Nov 10 2010 12:23:18 with gcc 4.1.2 20080704 (Red Hat 4.1.2-48)  configuration: --enable-libmp3lame --enable-shared --disable-mmx --arch=x86_64  libavutil     50.33. 0 / 50.33. 0  libavcore      0.12. 1 /  0.12. 1  libavcodec    52.94. 4 / 52.94. 4  libavformat   52.84. 0 / 52.84. 0  libavdevice   52. 2. 2 / 52. 2. 2  libavfilter    1.59. 0 /  1.59. 0  libswscale     0.12. 0 /  0.12. 0[mov,mp4,m4a,3gp,3g2,mj2 @ 0x6df54c0] max_analyze_duration reachedInput #0, mov,mp4,m4a,3gp,3g2,mj2, from '/RAID10/data/converted_video_files/11803.mov':  Duration: 00:00:06.66, bitrate: 5956 kb/s    Stream #0.0(eng): Video: svq1, yuv410p, 361x622, 5953 kb/s, 30 fps, 60 tbr, 60 tbn, 60 tbc[buffer @ 0x6df8ac0] w:361 h:622 pixfmt:yuv410p[ffsink @ 0x6dfba70] auto-inserting filter 'auto-inserted scaler 0' between the filter 'src' and the filter 'out'[scale @ 0x6dfbd60] w:361 h:622 fmt:yuv410p -> w:361 h:622 fmt:yuv420p flags:0x4Output #0, flv, to '/RAID10/data/converted_video_files/11803.flv':  Metadata:    encoder         : Lavf52.84.0    Stream #0.0(eng): Video: flv, yuv420p, 361x622, q=2-31, 600 kb/s, 1k tbn, 24 tbcStream mapping:  Stream #0.0 -> #0.0Press [q] to stop encodingframe=   54 fps=  0 q=14.6 size=     445kB time=2.25 bitrate=1622.0kbits/s dup=0 drop=13    frame=  115 fps=111 q=13.2 size=     636kB time=4.79 bitrate=1087.2kbits/s dup=0 drop=28    frame=  160 fps=112 q=9.4 Lsize=     774kB time=6.67 bitrate= 950.9kbits/s dup=0 drop=40    video:771kB audio:0kB global headers:0kB muxing overhead 0.350760%